<?xml version="1.0" encoding="UTF-8" standalone="no"?>
<!DOCTYPE svg PUBLIC "-//W3C//DTD SVG 1.1//EN"
 "http://www.w3.org/Graphics/SVG/1.1/DTD/svg11.dtd">
<!-- Generated by graphviz version 8.1.0 (20230707.0739)
 -->
<!-- Pages: 1 -->
<svg width="1575pt" height="210pt"
 viewBox="0.00 0.00 1574.75 210.00" xmlns="http://www.w3.org/2000/svg" xmlns:xlink="http://www.w3.org/1999/xlink">
<g id="graph0" class="graph" transform="scale(1 1) rotate(0) translate(4 206)">
<polygon fill="white" stroke="none" points="-4,4 -4,-206 1570.75,-206 1570.75,4 -4,4"/>
<!-- 2047956955152 -->
<g id="node1" class="node">
<title>2047956955152</title>
<polygon fill="none" stroke="black" points="671.25,-82.5 671.25,-118.5 943.5,-118.5 943.5,-82.5 671.25,-82.5"/>
<text text-anchor="middle" x="723.88" y="-95.2" font-family="Times New Roman,serif" font-size="14.00">x1*w1 + x2*w2</text>
<polyline fill="none" stroke="black" points="776.5,-82.75 776.5,-118.5"/>
<text text-anchor="middle" x="819" y="-95.2" font-family="Times New Roman,serif" font-size="14.00">data &#45;6.0000</text>
<polyline fill="none" stroke="black" points="861.5,-82.75 861.5,-118.5"/>
<text text-anchor="middle" x="902.5" y="-95.2" font-family="Times New Roman,serif" font-size="14.00">grad 0.5000</text>
</g>
<!-- 2047956954896+ -->
<g id="node8" class="node">
<title>2047956954896+</title>
<ellipse fill="none" stroke="black" cx="1006.5" cy="-127.5" rx="27" ry="18"/>
<text text-anchor="middle" x="1006.5" y="-122.08" font-family="Times New Roman,serif" font-size="14.00">+</text>
</g>
<!-- 2047956955152&#45;&gt;2047956954896+ -->
<g id="edge10" class="edge">
<title>2047956955152&#45;&gt;2047956954896+</title>
<path fill="none" stroke="black" d="M939.59,-118.47C950.03,-119.9 959.93,-121.26 968.72,-122.46"/>
<polygon fill="black" stroke="black" points="968.22,-126.06 978.6,-123.95 969.17,-119.13 968.22,-126.06"/>
</g>
<!-- 2047956955152+ -->
<g id="node2" class="node">
<title>2047956955152+</title>
<ellipse fill="none" stroke="black" cx="608.25" cy="-100.5" rx="27" ry="18"/>
<text text-anchor="middle" x="608.25" y="-95.08" font-family="Times New Roman,serif" font-size="14.00">+</text>
</g>
<!-- 2047956955152+&#45;&gt;2047956955152 -->
<g id="edge1" class="edge">
<title>2047956955152+&#45;&gt;2047956955152</title>
<path fill="none" stroke="black" d="M635.43,-100.5C642.81,-100.5 651.4,-100.5 660.72,-100.5"/>
<polygon fill="black" stroke="black" points="660.53,-104 670.53,-100.5 660.53,-97 660.53,-104"/>
</g>
<!-- 2047956335120 -->
<g id="node3" class="node">
<title>2047956335120</title>
<polygon fill="none" stroke="black" points="0,-55.5 0,-91.5 199.5,-91.5 199.5,-55.5 0,-55.5"/>
<text text-anchor="middle" x="16.25" y="-68.2" font-family="Times New Roman,serif" font-size="14.00">w1</text>
<polyline fill="none" stroke="black" points="32.5,-55.75 32.5,-91.5"/>
<text text-anchor="middle" x="75" y="-68.2" font-family="Times New Roman,serif" font-size="14.00">data &#45;3.0000</text>
<polyline fill="none" stroke="black" points="117.5,-55.75 117.5,-91.5"/>
<text text-anchor="middle" x="158.5" y="-68.2" font-family="Times New Roman,serif" font-size="14.00">grad 1.0000</text>
</g>
<!-- 2047956953040* -->
<g id="node15" class="node">
<title>2047956953040*</title>
<ellipse fill="none" stroke="black" cx="262.5" cy="-73.5" rx="27" ry="18"/>
<text text-anchor="middle" x="262.5" y="-68.08" font-family="Times New Roman,serif" font-size="14.00">*</text>
</g>
<!-- 2047956335120&#45;&gt;2047956953040* -->
<g id="edge9" class="edge">
<title>2047956335120&#45;&gt;2047956953040*</title>
<path fill="none" stroke="black" d="M199.35,-73.5C208.17,-73.5 216.68,-73.5 224.43,-73.5"/>
<polygon fill="black" stroke="black" points="224.18,-77 234.18,-73.5 224.18,-70 224.18,-77"/>
</g>
<!-- 2047956335248 -->
<g id="node4" class="node">
<title>2047956335248</title>
<polygon fill="none" stroke="black" points="3.75,-165.5 3.75,-201.5 195.75,-201.5 195.75,-165.5 3.75,-165.5"/>
<text text-anchor="middle" x="18.5" y="-178.2" font-family="Times New Roman,serif" font-size="14.00">x2</text>
<polyline fill="none" stroke="black" points="33.25,-165.75 33.25,-201.5"/>
<text text-anchor="middle" x="73.5" y="-178.2" font-family="Times New Roman,serif" font-size="14.00">data 0.0000</text>
<polyline fill="none" stroke="black" points="113.75,-165.75 113.75,-201.5"/>
<text text-anchor="middle" x="154.75" y="-178.2" font-family="Times New Roman,serif" font-size="14.00">grad 0.5000</text>
</g>
<!-- 2047956954960* -->
<g id="node10" class="node">
<title>2047956954960*</title>
<ellipse fill="none" stroke="black" cx="262.5" cy="-128.5" rx="27" ry="18"/>
<text text-anchor="middle" x="262.5" y="-123.08" font-family="Times New Roman,serif" font-size="14.00">*</text>
</g>
<!-- 2047956335248&#45;&gt;2047956954960* -->
<g id="edge14" class="edge">
<title>2047956335248&#45;&gt;2047956954960*</title>
<path fill="none" stroke="black" d="M171.84,-165.51C181.21,-162.72 190.64,-159.69 199.5,-156.5 209.81,-152.79 220.79,-148.09 230.6,-143.61"/>
<polygon fill="black" stroke="black" points="231.74,-146.47 239.32,-139.06 228.78,-140.13 231.74,-146.47"/>
</g>
<!-- 2047952073168 -->
<g id="node5" class="node">
<title>2047952073168</title>
<polygon fill="none" stroke="black" points="714.38,-137.5 714.38,-173.5 900.38,-173.5 900.38,-137.5 714.38,-137.5"/>
<text text-anchor="middle" x="726.12" y="-150.2" font-family="Times New Roman,serif" font-size="14.00">b</text>
<polyline fill="none" stroke="black" points="737.88,-137.75 737.88,-173.5"/>
<text text-anchor="middle" x="778.12" y="-150.2" font-family="Times New Roman,serif" font-size="14.00">data 6.8814</text>
<polyline fill="none" stroke="black" points="818.38,-137.75 818.38,-173.5"/>
<text text-anchor="middle" x="859.38" y="-150.2" font-family="Times New Roman,serif" font-size="14.00">grad 0.5000</text>
</g>
<!-- 2047952073168&#45;&gt;2047956954896+ -->
<g id="edge7" class="edge">
<title>2047952073168&#45;&gt;2047956954896+</title>
<path fill="none" stroke="black" d="M900.3,-142.44C924.63,-138.99 949.51,-135.45 968.96,-132.69"/>
<polygon fill="black" stroke="black" points="969.33,-136.03 978.73,-131.16 968.34,-129.1 969.33,-136.03"/>
</g>
<!-- 2047956335312 -->
<g id="node6" class="node">
<title>2047956335312</title>
<polygon fill="none" stroke="black" points="2.25,-110.5 2.25,-146.5 197.25,-146.5 197.25,-110.5 2.25,-110.5"/>
<text text-anchor="middle" x="18.5" y="-123.2" font-family="Times New Roman,serif" font-size="14.00">w2</text>
<polyline fill="none" stroke="black" points="34.75,-110.75 34.75,-146.5"/>
<text text-anchor="middle" x="75" y="-123.2" font-family="Times New Roman,serif" font-size="14.00">data 1.0000</text>
<polyline fill="none" stroke="black" points="115.25,-110.75 115.25,-146.5"/>
<text text-anchor="middle" x="156.25" y="-123.2" font-family="Times New Roman,serif" font-size="14.00">grad 0.0000</text>
</g>
<!-- 2047956335312&#45;&gt;2047956954960* -->
<g id="edge12" class="edge">
<title>2047956335312&#45;&gt;2047956954960*</title>
<path fill="none" stroke="black" d="M197.04,-128.5C206.6,-128.5 215.85,-128.5 224.22,-128.5"/>
<polygon fill="black" stroke="black" points="224.02,-132 234.02,-128.5 224.02,-125 224.02,-132"/>
</g>
<!-- 2047956954896 -->
<g id="node7" class="node">
<title>2047956954896</title>
<polygon fill="none" stroke="black" points="1069.5,-109.5 1069.5,-145.5 1254.75,-145.5 1254.75,-109.5 1069.5,-109.5"/>
<text text-anchor="middle" x="1080.88" y="-122.2" font-family="Times New Roman,serif" font-size="14.00">n</text>
<polyline fill="none" stroke="black" points="1092.25,-109.75 1092.25,-145.5"/>
<text text-anchor="middle" x="1132.5" y="-122.2" font-family="Times New Roman,serif" font-size="14.00">data 0.8814</text>
<polyline fill="none" stroke="black" points="1172.75,-109.75 1172.75,-145.5"/>
<text text-anchor="middle" x="1213.75" y="-122.2" font-family="Times New Roman,serif" font-size="14.00">grad 0.5000</text>
</g>
<!-- 2047956955472tanh -->
<g id="node12" class="node">
<title>2047956955472tanh</title>
<ellipse fill="none" stroke="black" cx="1317.75" cy="-127.5" rx="27" ry="18"/>
<text text-anchor="middle" x="1317.75" y="-122.08" font-family="Times New Roman,serif" font-size="14.00">tanh</text>
</g>
<!-- 2047956954896&#45;&gt;2047956955472tanh -->
<g id="edge11" class="edge">
<title>2047956954896&#45;&gt;2047956955472tanh</title>
<path fill="none" stroke="black" d="M1254.71,-127.5C1263.33,-127.5 1271.69,-127.5 1279.34,-127.5"/>
<polygon fill="black" stroke="black" points="1279.33,-131 1289.33,-127.5 1279.33,-124 1279.33,-131"/>
</g>
<!-- 2047956954896+&#45;&gt;2047956954896 -->
<g id="edge2" class="edge">
<title>2047956954896+&#45;&gt;2047956954896</title>
<path fill="none" stroke="black" d="M1033.91,-127.5C1041.31,-127.5 1049.82,-127.5 1058.87,-127.5"/>
<polygon fill="black" stroke="black" points="1058.7,-131 1068.7,-127.5 1058.7,-124 1058.7,-131"/>
</g>
<!-- 2047956954960 -->
<g id="node9" class="node">
<title>2047956954960</title>
<polygon fill="none" stroke="black" points="327.75,-110.5 327.75,-146.5 543,-146.5 543,-110.5 327.75,-110.5"/>
<text text-anchor="middle" x="354.12" y="-123.2" font-family="Times New Roman,serif" font-size="14.00">x2*w2</text>
<polyline fill="none" stroke="black" points="380.5,-110.75 380.5,-146.5"/>
<text text-anchor="middle" x="420.75" y="-123.2" font-family="Times New Roman,serif" font-size="14.00">data 0.0000</text>
<polyline fill="none" stroke="black" points="461,-110.75 461,-146.5"/>
<text text-anchor="middle" x="502" y="-123.2" font-family="Times New Roman,serif" font-size="14.00">grad 0.5000</text>
</g>
<!-- 2047956954960&#45;&gt;2047956955152+ -->
<g id="edge8" class="edge">
<title>2047956954960&#45;&gt;2047956955152+</title>
<path fill="none" stroke="black" d="M542.65,-111.09C552.65,-109.45 562.25,-107.87 570.85,-106.46"/>
<polygon fill="black" stroke="black" points="571.22,-109.79 580.52,-104.72 570.09,-102.88 571.22,-109.79"/>
</g>
<!-- 2047956954960*&#45;&gt;2047956954960 -->
<g id="edge3" class="edge">
<title>2047956954960*&#45;&gt;2047956954960</title>
<path fill="none" stroke="black" d="M289.82,-128.5C297.73,-128.5 306.96,-128.5 316.87,-128.5"/>
<polygon fill="black" stroke="black" points="316.84,-132 326.84,-128.5 316.84,-125 316.84,-132"/>
</g>
<!-- 2047956955472 -->
<g id="node11" class="node">
<title>2047956955472</title>
<polygon fill="none" stroke="black" points="1380.75,-109.5 1380.75,-145.5 1566.75,-145.5 1566.75,-109.5 1380.75,-109.5"/>
<text text-anchor="middle" x="1392.5" y="-122.2" font-family="Times New Roman,serif" font-size="14.00">o</text>
<polyline fill="none" stroke="black" points="1404.25,-109.75 1404.25,-145.5"/>
<text text-anchor="middle" x="1444.5" y="-122.2" font-family="Times New Roman,serif" font-size="14.00">data 0.7071</text>
<polyline fill="none" stroke="black" points="1484.75,-109.75 1484.75,-145.5"/>
<text text-anchor="middle" x="1525.75" y="-122.2" font-family="Times New Roman,serif" font-size="14.00">grad 1.0000</text>
</g>
<!-- 2047956955472tanh&#45;&gt;2047956955472 -->
<g id="edge4" class="edge">
<title>2047956955472tanh&#45;&gt;2047956955472</title>
<path fill="none" stroke="black" d="M1345.22,-127.5C1352.58,-127.5 1361.04,-127.5 1370.02,-127.5"/>
<polygon fill="black" stroke="black" points="1369.78,-131 1379.78,-127.5 1369.78,-124 1369.78,-131"/>
</g>
<!-- 2047956335440 -->
<g id="node13" class="node">
<title>2047956335440</title>
<polygon fill="none" stroke="black" points="1.5,-0.5 1.5,-36.5 198,-36.5 198,-0.5 1.5,-0.5"/>
<text text-anchor="middle" x="16.25" y="-13.2" font-family="Times New Roman,serif" font-size="14.00">x1</text>
<polyline fill="none" stroke="black" points="31,-0.75 31,-36.5"/>
<text text-anchor="middle" x="71.25" y="-13.2" font-family="Times New Roman,serif" font-size="14.00">data 2.0000</text>
<polyline fill="none" stroke="black" points="111.5,-0.75 111.5,-36.5"/>
<text text-anchor="middle" x="154.75" y="-13.2" font-family="Times New Roman,serif" font-size="14.00">grad &#45;1.5000</text>
</g>
<!-- 2047956335440&#45;&gt;2047956953040* -->
<g id="edge6" class="edge">
<title>2047956335440&#45;&gt;2047956953040*</title>
<path fill="none" stroke="black" d="M168.6,-36.43C179.02,-39.56 189.6,-42.96 199.5,-46.5 209.57,-50.1 220.32,-54.56 229.99,-58.8"/>
<polygon fill="black" stroke="black" points="228.42,-62.38 238.98,-63.28 231.29,-56 228.42,-62.38"/>
</g>
<!-- 2047956953040 -->
<g id="node14" class="node">
<title>2047956953040</title>
<polygon fill="none" stroke="black" points="325.5,-55.5 325.5,-91.5 545.25,-91.5 545.25,-55.5 325.5,-55.5"/>
<text text-anchor="middle" x="351.88" y="-68.2" font-family="Times New Roman,serif" font-size="14.00">x1*w1</text>
<polyline fill="none" stroke="black" points="378.25,-55.75 378.25,-91.5"/>
<text text-anchor="middle" x="420.75" y="-68.2" font-family="Times New Roman,serif" font-size="14.00">data &#45;6.0000</text>
<polyline fill="none" stroke="black" points="463.25,-55.75 463.25,-91.5"/>
<text text-anchor="middle" x="504.25" y="-68.2" font-family="Times New Roman,serif" font-size="14.00">grad 0.5000</text>
</g>
<!-- 2047956953040&#45;&gt;2047956955152+ -->
<g id="edge13" class="edge">
<title>2047956953040&#45;&gt;2047956955152+</title>
<path fill="none" stroke="black" d="M545.08,-90.68C554.29,-92.13 563.12,-93.53 571.08,-94.78"/>
<polygon fill="black" stroke="black" points="570.28,-98.36 580.7,-96.46 571.37,-91.45 570.28,-98.36"/>
</g>
<!-- 2047956953040*&#45;&gt;2047956953040 -->
<g id="edge5" class="edge">
<title>2047956953040*&#45;&gt;2047956953040</title>
<path fill="none" stroke="black" d="M289.82,-73.5C297.16,-73.5 305.63,-73.5 314.73,-73.5"/>
<polygon fill="black" stroke="black" points="314.66,-77 324.66,-73.5 314.66,-70 314.66,-77"/>
</g>
</g>
</svg>
